<?xml version="1.0" encoding="utf-8"?>
<!-- Generator: Adobe Illustrator 23.0.0, SVG Export Plug-In . SVG Version: 6.00 Build 0)  -->
<svg version="1.1" id="Layer_1" xmlns="http://www.w3.org/2000/svg" xmlns:xlink="http://www.w3.org/1999/xlink" x="0px" y="0px"
	 viewBox="0 0 478.28 120.86" style="enable-background:new 0 0 478.28 120.86;" xml:space="preserve">
<style type="text/css">
	.st0{fill:#F15747;}
	.st1{fill:#33BFC7;}
	.st2{fill:#414042;}
</style>
<polygon class="st0" points="87.17,42.51 87.17,97.92 100.72,97.92 100.72,57.29 127.8,57.29 127.8,42.51 100.72,42.51 
	100.72,35.74 55.98,35.74 55.98,20.97 87.17,20.97 "/>
<polygon class="st1" points="37.92,76.99 37.92,21.58 51.47,21.58 51.47,62.21 8.17,62.21 8.17,76.99 51.47,76.99 51.47,83.76 
	81.43,83.76 81.43,98.53 37.92,98.53 "/>
<rect x="436.31" y="32.58" class="st1" width="14.77" height="14.77"/>
<rect x="55.98" y="62.01" class="st0" width="14.77" height="14.77"/>
<g>
	<path d="M167.86,49.62v6.28h-10.33v32.5h-7.78V55.9h-10.33v-6.28H167.86z"/>
	<path d="M201.91,75.34h-22.5c0.18,2.22,0.96,3.96,2.33,5.22c1.37,1.26,3.06,1.89,5.06,1.89c2.89,0,4.94-1.24,6.17-3.72h8.39
		c-0.89,2.96-2.59,5.4-5.11,7.31c-2.52,1.91-5.61,2.86-9.28,2.86c-2.96,0-5.62-0.66-7.97-1.97c-2.35-1.31-4.19-3.18-5.5-5.58
		c-1.32-2.41-1.97-5.19-1.97-8.33c0-3.18,0.65-5.98,1.94-8.39c1.3-2.41,3.11-4.26,5.44-5.56c2.33-1.3,5.02-1.94,8.06-1.94
		c2.93,0,5.55,0.63,7.86,1.89c2.31,1.26,4.11,3.05,5.39,5.36c1.28,2.32,1.92,4.97,1.92,7.97C202.13,73.45,202.06,74.45,201.91,75.34
		z M194.08,70.12c-0.04-2-0.76-3.6-2.17-4.81c-1.41-1.2-3.13-1.81-5.17-1.81c-1.93,0-3.55,0.58-4.86,1.75
		c-1.32,1.17-2.12,2.79-2.42,4.86H194.08z"/>
	<path d="M207.75,64.65c1.3-2.39,3.09-4.24,5.39-5.56c2.3-1.31,4.93-1.97,7.89-1.97c3.81,0,6.97,0.95,9.47,2.86
		c2.5,1.91,4.18,4.58,5.03,8.03h-8.39c-0.44-1.33-1.19-2.38-2.25-3.14c-1.06-0.76-2.36-1.14-3.92-1.14c-2.22,0-3.98,0.81-5.28,2.42
		c-1.3,1.61-1.94,3.9-1.94,6.86c0,2.93,0.65,5.19,1.94,6.81c1.3,1.61,3.06,2.42,5.28,2.42c3.15,0,5.2-1.41,6.17-4.22h8.39
		c-0.85,3.33-2.54,5.98-5.06,7.94c-2.52,1.96-5.67,2.94-9.44,2.94c-2.96,0-5.59-0.66-7.89-1.97c-2.3-1.31-4.09-3.17-5.39-5.56
		c-1.3-2.39-1.94-5.18-1.94-8.36C205.8,69.83,206.45,67.04,207.75,64.65z"/>
	<path d="M267.19,60.65c2.26,2.32,3.39,5.55,3.39,9.7V88.4h-7.78v-17c0-2.44-0.61-4.32-1.83-5.64c-1.22-1.31-2.89-1.97-5-1.97
		c-2.15,0-3.84,0.66-5.08,1.97c-1.24,1.32-1.86,3.19-1.86,5.64v17h-7.78V57.62h7.78v3.83c1.04-1.33,2.36-2.38,3.97-3.14
		c1.61-0.76,3.38-1.14,5.31-1.14C261.97,57.18,264.93,58.33,267.19,60.65z"/>
	<path d="M278.5,52.65c-0.91-0.87-1.36-1.95-1.36-3.25c0-1.3,0.45-2.38,1.36-3.25c0.91-0.87,2.05-1.31,3.42-1.31
		c1.37,0,2.51,0.44,3.42,1.31c0.91,0.87,1.36,1.95,1.36,3.25c0,1.3-0.45,2.38-1.36,3.25c-0.91,0.87-2.05,1.31-3.42,1.31
		C280.54,53.95,279.4,53.52,278.5,52.65z M285.75,57.62V88.4h-7.78V57.62H285.75z"/>
	<path d="M306.25,81.23l7.78-23.61h8.28L310.92,88.4h-9.44l-11.33-30.78h8.33L306.25,81.23z"/>
	<path d="M326.56,64.62c1.24-2.41,2.93-4.26,5.06-5.56c2.13-1.3,4.51-1.94,7.14-1.94c2.3,0,4.31,0.46,6.03,1.39
		c1.72,0.93,3.1,2.09,4.14,3.5v-4.39h7.83V88.4h-7.83v-4.5c-1,1.44-2.38,2.64-4.14,3.58c-1.76,0.94-3.79,1.42-6.08,1.42
		c-2.59,0-4.95-0.67-7.08-2c-2.13-1.33-3.82-3.21-5.06-5.64c-1.24-2.43-1.86-5.21-1.86-8.36C324.69,69.79,325.31,67.03,326.56,64.62
		z M347.81,68.15c-0.74-1.35-1.74-2.39-3-3.11c-1.26-0.72-2.61-1.08-4.06-1.08c-1.44,0-2.78,0.35-4,1.06
		c-1.22,0.7-2.21,1.73-2.97,3.08c-0.76,1.35-1.14,2.95-1.14,4.81c0,1.85,0.38,3.47,1.14,4.86c0.76,1.39,1.76,2.45,3,3.19
		c1.24,0.74,2.56,1.11,3.97,1.11c1.44,0,2.8-0.36,4.06-1.08c1.26-0.72,2.26-1.76,3-3.11c0.74-1.35,1.11-2.97,1.11-4.86
		C348.92,71.12,348.55,69.5,347.81,68.15z"/>
	<path d="M373.42,64.01V78.9c0,1.04,0.25,1.79,0.75,2.25c0.5,0.46,1.34,0.69,2.53,0.69h3.61v6.56h-4.89c-6.56,0-9.83-3.18-9.83-9.56
		V64.01h-3.67v-6.39h3.67v-7.61h7.83v7.61h6.89v6.39H373.42z"/>
	<path d="M386.45,52.65c-0.91-0.87-1.36-1.95-1.36-3.25c0-1.3,0.45-2.38,1.36-3.25c0.91-0.87,2.05-1.31,3.42-1.31
		c1.37,0,2.51,0.44,3.42,1.31c0.91,0.87,1.36,1.95,1.36,3.25c0,1.3-0.45,2.38-1.36,3.25c-0.91,0.87-2.05,1.31-3.42,1.31
		C388.49,53.95,387.35,53.52,386.45,52.65z M393.7,57.62V88.4h-7.78V57.62H393.7z"/>
	<path d="M407.03,86.93c-2.37-1.31-4.23-3.18-5.58-5.58c-1.35-2.41-2.03-5.19-2.03-8.33c0-3.15,0.69-5.93,2.08-8.33
		c1.39-2.41,3.29-4.27,5.7-5.58c2.41-1.31,5.09-1.97,8.06-1.97c2.96,0,5.65,0.66,8.06,1.97c2.41,1.32,4.31,3.18,5.7,5.58
		c1.39,2.41,2.08,5.19,2.08,8.33c0,3.15-0.71,5.93-2.14,8.33c-1.43,2.41-3.35,4.27-5.78,5.58c-2.43,1.32-5.14,1.97-8.14,1.97
		C412.07,88.9,409.4,88.24,407.03,86.93z M419,81.09c1.24-0.68,2.23-1.71,2.97-3.08c0.74-1.37,1.11-3.04,1.11-5
		c0-2.93-0.77-5.18-2.31-6.75c-1.54-1.57-3.42-2.36-5.64-2.36s-4.08,0.79-5.58,2.36c-1.5,1.57-2.25,3.82-2.25,6.75
		c0,2.93,0.73,5.18,2.19,6.75c1.46,1.57,3.31,2.36,5.53,2.36C416.44,82.12,417.76,81.78,419,81.09z"/>
	<path d="M462.75,60.65c2.26,2.32,3.39,5.55,3.39,9.7V88.4h-7.78v-17c0-2.44-0.61-4.32-1.83-5.64c-1.22-1.31-2.89-1.97-5-1.97
		c-2.15,0-3.84,0.66-5.08,1.97c-1.24,1.32-1.86,3.19-1.86,5.64v17h-7.78V57.62h7.78v3.83c1.04-1.33,2.36-2.38,3.97-3.14
		c1.61-0.76,3.38-1.14,5.31-1.14C457.53,57.18,460.49,58.33,462.75,60.65z"/>
</g>
<g>
	<path class="st2" d="M150.89,146.73v0.92h-3.07v10.13h-1.11v-10.13h-3.08v-0.92H150.89z"/>
	<path class="st2" d="M158.51,149.4c0.52,0.27,0.93,0.69,1.23,1.26s0.45,1.25,0.45,2.06v5.06h-1.09v-4.93c0-0.94-0.23-1.65-0.7-2.15
		s-1.11-0.74-1.92-0.74c-0.83,0-1.5,0.26-1.99,0.79s-0.74,1.3-0.74,2.32v4.71h-1.11v-11.69h1.11v4.53c0.27-0.52,0.68-0.92,1.21-1.2
		c0.53-0.28,1.13-0.43,1.79-0.43C157.4,148.99,157.99,149.12,158.51,149.4z"/>
	<path class="st2" d="M170.42,153.88h-7.16c0.03,0.65,0.19,1.21,0.47,1.68c0.28,0.46,0.66,0.81,1.12,1.05
		c0.46,0.24,0.97,0.36,1.52,0.36c0.72,0,1.32-0.17,1.81-0.52s0.81-0.82,0.97-1.41h1.17c-0.21,0.84-0.66,1.53-1.35,2.06
		s-1.56,0.8-2.6,0.8c-0.81,0-1.54-0.18-2.18-0.55c-0.64-0.36-1.15-0.88-1.51-1.55c-0.36-0.67-0.55-1.45-0.55-2.35
		s0.18-1.68,0.54-2.35c0.36-0.67,0.86-1.19,1.5-1.55c0.64-0.36,1.37-0.54,2.2-0.54s1.54,0.18,2.16,0.54s1.09,0.84,1.42,1.45
		c0.33,0.61,0.5,1.28,0.5,2.01C170.45,153.39,170.44,153.68,170.42,153.88z M168.94,151.34c-0.27-0.45-0.63-0.79-1.1-1.03
		c-0.46-0.23-0.97-0.35-1.52-0.35c-0.82,0-1.52,0.26-2.1,0.79c-0.58,0.53-0.9,1.27-0.96,2.23h6.07
		C169.34,152.34,169.21,151.79,168.94,151.34z"/>
	<path class="st2" d="M183.26,146.73v0.92h-3.07v10.13h-1.11v-10.13h-3.08v-0.92H183.26z"/>
	<path class="st2" d="M192.79,153.88h-7.16c0.03,0.65,0.19,1.21,0.47,1.68c0.28,0.46,0.66,0.81,1.12,1.05
		c0.46,0.24,0.97,0.36,1.52,0.36c0.72,0,1.32-0.17,1.81-0.52s0.81-0.82,0.97-1.41h1.17c-0.21,0.84-0.66,1.53-1.35,2.06
		s-1.56,0.8-2.6,0.8c-0.81,0-1.54-0.18-2.18-0.55c-0.64-0.36-1.15-0.88-1.51-1.55c-0.36-0.67-0.55-1.45-0.55-2.35
		s0.18-1.68,0.54-2.35c0.36-0.67,0.86-1.19,1.5-1.55c0.64-0.36,1.37-0.54,2.2-0.54s1.54,0.18,2.16,0.54s1.09,0.84,1.42,1.45
		c0.33,0.61,0.5,1.28,0.5,2.01C192.82,153.39,192.81,153.68,192.79,153.88z M191.31,151.34c-0.27-0.45-0.63-0.79-1.1-1.03
		c-0.46-0.23-0.97-0.35-1.52-0.35c-0.82,0-1.52,0.26-2.1,0.79c-0.58,0.53-0.9,1.27-0.96,2.23h6.07
		C191.71,152.34,191.58,151.79,191.31,151.34z"/>
	<path class="st2" d="M194.87,151.11c0.36-0.67,0.85-1.19,1.48-1.55c0.63-0.36,1.35-0.54,2.17-0.54c1.06,0,1.94,0.26,2.63,0.79
		c0.69,0.53,1.13,1.24,1.33,2.15h-1.19c-0.15-0.62-0.47-1.11-0.96-1.46c-0.49-0.35-1.1-0.53-1.82-0.53c-0.58,0-1.1,0.13-1.56,0.4
		c-0.46,0.26-0.83,0.66-1.1,1.18s-0.4,1.16-0.4,1.92c0,0.76,0.13,1.4,0.4,1.93s0.63,0.92,1.1,1.19c0.46,0.26,0.98,0.4,1.56,0.4
		c0.73,0,1.33-0.18,1.82-0.53s0.81-0.85,0.96-1.48h1.19c-0.2,0.88-0.65,1.6-1.34,2.13c-0.69,0.54-1.57,0.81-2.62,0.81
		c-0.81,0-1.53-0.18-2.17-0.55c-0.63-0.36-1.13-0.88-1.48-1.55c-0.36-0.67-0.54-1.45-0.54-2.35S194.52,151.78,194.87,151.11z"/>
	<path class="st2" d="M210.4,149.4c0.52,0.27,0.93,0.69,1.23,1.26s0.45,1.25,0.45,2.06v5.06h-1.09v-4.93c0-0.94-0.23-1.65-0.7-2.15
		s-1.11-0.74-1.92-0.74c-0.83,0-1.5,0.26-1.99,0.79s-0.74,1.3-0.74,2.32v4.71h-1.11v-11.69h1.11v4.53c0.27-0.52,0.68-0.92,1.21-1.2
		c0.53-0.28,1.13-0.43,1.79-0.43C209.29,148.99,209.88,149.12,210.4,149.4z"/>
	<path class="st2" d="M221.1,149.94c0.65,0.64,0.98,1.56,0.98,2.77v5.06h-1.09v-4.93c0-0.94-0.23-1.65-0.7-2.15
		s-1.11-0.74-1.92-0.74c-0.83,0-1.5,0.26-1.99,0.79s-0.74,1.3-0.74,2.32v4.71h-1.11v-8.63h1.11v1.47c0.27-0.53,0.67-0.93,1.19-1.21
		c0.52-0.28,1.1-0.42,1.75-0.42C219.61,148.99,220.45,149.3,221.1,149.94z"/>
	<path class="st2" d="M224.52,147.28c-0.16-0.16-0.24-0.35-0.24-0.58c0-0.23,0.08-0.42,0.24-0.58c0.16-0.15,0.35-0.23,0.57-0.23
		s0.41,0.08,0.57,0.23c0.16,0.15,0.24,0.35,0.24,0.58c0,0.23-0.08,0.43-0.24,0.58c-0.16,0.16-0.35,0.24-0.57,0.24
		S224.67,147.44,224.52,147.28z M225.64,149.14v8.63h-1.11v-8.63H225.64z"/>
	<path class="st2" d="M228.18,151.11c0.36-0.67,0.85-1.19,1.48-1.55c0.63-0.36,1.35-0.54,2.17-0.54c1.06,0,1.94,0.26,2.63,0.79
		c0.69,0.53,1.13,1.24,1.33,2.15h-1.19c-0.15-0.62-0.47-1.11-0.96-1.46c-0.49-0.35-1.1-0.53-1.82-0.53c-0.58,0-1.1,0.13-1.56,0.4
		c-0.46,0.26-0.83,0.66-1.1,1.18s-0.4,1.16-0.4,1.92c0,0.76,0.13,1.4,0.4,1.93s0.63,0.92,1.1,1.19c0.46,0.26,0.98,0.4,1.56,0.4
		c0.73,0,1.33-0.18,1.82-0.53s0.81-0.85,0.96-1.48h1.19c-0.2,0.88-0.65,1.6-1.34,2.13c-0.69,0.54-1.57,0.81-2.62,0.81
		c-0.81,0-1.53-0.18-2.17-0.55c-0.63-0.36-1.13-0.88-1.48-1.55c-0.36-0.67-0.54-1.45-0.54-2.35S227.82,151.78,228.18,151.11z"/>
	<path class="st2" d="M237.86,151.11c0.35-0.67,0.84-1.19,1.47-1.55c0.63-0.36,1.33-0.54,2.13-0.54c0.82,0,1.53,0.19,2.13,0.57
		c0.59,0.38,1.02,0.86,1.29,1.45v-1.9h1.11v8.63h-1.11v-1.91c-0.27,0.59-0.71,1.08-1.3,1.46s-1.3,0.58-2.13,0.58
		c-0.78,0-1.48-0.18-2.11-0.55c-0.63-0.37-1.12-0.89-1.47-1.56c-0.35-0.67-0.53-1.45-0.53-2.34S237.51,151.78,237.86,151.11z
		 M244.44,151.62c-0.28-0.53-0.67-0.93-1.16-1.22c-0.49-0.28-1.03-0.43-1.62-0.43c-0.61,0-1.16,0.14-1.64,0.41
		c-0.48,0.27-0.87,0.67-1.15,1.19c-0.28,0.52-0.42,1.14-0.42,1.86c0,0.71,0.14,1.33,0.42,1.86c0.28,0.53,0.66,0.94,1.15,1.22
		c0.48,0.28,1.03,0.42,1.64,0.42c0.59,0,1.13-0.14,1.62-0.43c0.49-0.28,0.88-0.69,1.16-1.22c0.28-0.53,0.43-1.14,0.43-1.83
		S244.73,152.15,244.44,151.62z"/>
	<path class="st2" d="M249.61,146.08v11.69h-1.11v-11.69H249.61z"/>
	<path class="st2" d="M257.56,146.73v11.04h-1.11v-11.04H257.56z"/>
	<path class="st2" d="M266.64,149.94c0.65,0.64,0.98,1.56,0.98,2.77v5.06h-1.09v-4.93c0-0.94-0.23-1.65-0.7-2.15
		s-1.11-0.74-1.92-0.74c-0.83,0-1.5,0.26-1.99,0.79s-0.74,1.3-0.74,2.32v4.71h-1.11v-8.63h1.11v1.47c0.27-0.53,0.67-0.93,1.19-1.21
		c0.52-0.28,1.1-0.42,1.75-0.42C265.14,148.99,265.99,149.3,266.64,149.94z"/>
	<path class="st2" d="M276.64,149.94c0.65,0.64,0.98,1.56,0.98,2.77v5.06h-1.09v-4.93c0-0.94-0.23-1.65-0.7-2.15
		s-1.11-0.74-1.92-0.74c-0.83,0-1.5,0.26-1.99,0.79s-0.74,1.3-0.74,2.32v4.71h-1.11v-8.63h1.11v1.47c0.27-0.53,0.67-0.93,1.19-1.21
		c0.52-0.28,1.1-0.42,1.75-0.42C275.15,148.99,275.99,149.3,276.64,149.94z"/>
	<path class="st2" d="M281.66,157.35c-0.65-0.36-1.16-0.88-1.53-1.55s-0.56-1.45-0.56-2.35s0.19-1.68,0.57-2.35
		c0.38-0.67,0.9-1.19,1.55-1.55c0.65-0.36,1.38-0.54,2.2-0.54c0.81,0,1.55,0.18,2.2,0.54c0.66,0.36,1.17,0.88,1.55,1.55
		s0.56,1.45,0.56,2.35c0,0.88-0.19,1.66-0.57,2.34c-0.38,0.67-0.9,1.19-1.56,1.56c-0.66,0.36-1.4,0.55-2.21,0.55
		C283.04,157.9,282.31,157.72,281.66,157.35z M285.43,156.55c0.48-0.26,0.88-0.65,1.18-1.17c0.3-0.52,0.45-1.16,0.45-1.92
		c0-0.76-0.15-1.4-0.44-1.92s-0.69-0.91-1.17-1.17c-0.48-0.26-1.01-0.39-1.58-0.39s-1.1,0.13-1.58,0.39
		c-0.48,0.26-0.87,0.65-1.16,1.17c-0.29,0.52-0.43,1.16-0.43,1.92c0,0.76,0.14,1.4,0.43,1.92c0.29,0.52,0.67,0.91,1.15,1.17
		c0.48,0.26,1,0.39,1.57,0.39S284.94,156.8,285.43,156.55z"/>
	<path class="st2" d="M293.28,156.7l2.91-7.55h1.17l-3.46,8.63h-1.25l-3.46-8.63h1.19L293.28,156.7z"/>
	<path class="st2" d="M298.88,151.11c0.35-0.67,0.84-1.19,1.47-1.55c0.63-0.36,1.33-0.54,2.13-0.54c0.82,0,1.53,0.19,2.13,0.57
		c0.59,0.38,1.02,0.86,1.29,1.45v-1.9H307v8.63h-1.11v-1.91c-0.27,0.59-0.71,1.08-1.3,1.46s-1.3,0.58-2.13,0.58
		c-0.78,0-1.48-0.18-2.11-0.55c-0.63-0.37-1.12-0.89-1.47-1.56c-0.35-0.67-0.53-1.45-0.53-2.34S298.53,151.78,298.88,151.11z
		 M305.46,151.62c-0.28-0.53-0.67-0.93-1.16-1.22c-0.49-0.28-1.03-0.43-1.62-0.43c-0.61,0-1.16,0.14-1.64,0.41
		c-0.48,0.27-0.87,0.67-1.15,1.19c-0.28,0.52-0.42,1.14-0.42,1.86c0,0.71,0.14,1.33,0.42,1.86c0.28,0.53,0.66,0.94,1.15,1.22
		c0.48,0.28,1.03,0.42,1.64,0.42c0.59,0,1.13-0.14,1.62-0.43c0.49-0.28,0.88-0.69,1.16-1.22c0.28-0.53,0.43-1.14,0.43-1.83
		S305.75,152.15,305.46,151.62z"/>
	<path class="st2" d="M310.96,150.08v5.36c0,0.53,0.1,0.89,0.3,1.09s0.55,0.3,1.06,0.3h1.01v0.95h-1.19c-0.78,0-1.36-0.18-1.74-0.54
		c-0.38-0.36-0.57-0.96-0.57-1.79v-5.36h-1.2v-0.93h1.2v-2.16h1.12v2.16h2.37v0.93H310.96z"/>
	<path class="st2" d="M315.13,147.28c-0.16-0.16-0.24-0.35-0.24-0.58c0-0.23,0.08-0.42,0.24-0.58c0.16-0.15,0.35-0.23,0.57-0.23
		s0.41,0.08,0.57,0.23c0.16,0.15,0.24,0.35,0.24,0.58c0,0.23-0.08,0.43-0.24,0.58c-0.16,0.16-0.35,0.24-0.57,0.24
		S315.29,147.44,315.13,147.28z M316.25,149.14v8.63h-1.11v-8.63H316.25z"/>
	<path class="st2" d="M320.35,157.35c-0.65-0.36-1.16-0.88-1.53-1.55s-0.56-1.45-0.56-2.35s0.19-1.68,0.57-2.35
		c0.38-0.67,0.9-1.19,1.55-1.55c0.65-0.36,1.38-0.54,2.2-0.54c0.81,0,1.55,0.18,2.2,0.54c0.66,0.36,1.17,0.88,1.55,1.55
		s0.56,1.45,0.56,2.35c0,0.88-0.19,1.66-0.57,2.34c-0.38,0.67-0.9,1.19-1.56,1.56c-0.66,0.36-1.4,0.55-2.21,0.55
		C321.73,157.9,321,157.72,320.35,157.35z M324.12,156.55c0.48-0.26,0.88-0.65,1.18-1.17c0.3-0.52,0.45-1.16,0.45-1.92
		c0-0.76-0.15-1.4-0.44-1.92s-0.69-0.91-1.17-1.17c-0.48-0.26-1.01-0.39-1.58-0.39s-1.1,0.13-1.58,0.39
		c-0.48,0.26-0.87,0.65-1.16,1.17c-0.29,0.52-0.43,1.16-0.43,1.92c0,0.76,0.14,1.4,0.43,1.92c0.29,0.52,0.67,0.91,1.15,1.17
		c0.48,0.26,1,0.39,1.57,0.39S323.64,156.8,324.12,156.55z"/>
	<path class="st2" d="M335.48,149.94c0.65,0.64,0.98,1.56,0.98,2.77v5.06h-1.09v-4.93c0-0.94-0.23-1.65-0.7-2.15
		s-1.11-0.74-1.92-0.74c-0.83,0-1.5,0.26-1.99,0.79s-0.74,1.3-0.74,2.32v4.71h-1.11v-8.63h1.11v1.47c0.27-0.53,0.67-0.93,1.19-1.21
		c0.52-0.28,1.1-0.42,1.75-0.42C333.99,148.99,334.83,149.3,335.48,149.94z"/>
	<path class="st2" d="M339.46,157.21c-0.63-0.46-0.98-1.08-1.05-1.87h1.14c0.05,0.48,0.28,0.88,0.69,1.18
		c0.41,0.3,0.95,0.45,1.64,0.45c0.6,0,1.07-0.14,1.41-0.43c0.34-0.28,0.51-0.64,0.51-1.06c0-0.29-0.09-0.54-0.28-0.73
		c-0.19-0.19-0.43-0.34-0.72-0.45c-0.29-0.11-0.68-0.23-1.18-0.36c-0.64-0.17-1.16-0.34-1.56-0.51c-0.4-0.17-0.74-0.42-1.02-0.75
		c-0.28-0.33-0.42-0.78-0.42-1.33c0-0.42,0.13-0.81,0.38-1.17c0.25-0.36,0.61-0.64,1.07-0.85s0.99-0.32,1.58-0.32
		c0.93,0,1.67,0.23,2.24,0.7s0.87,1.11,0.92,1.94h-1.11c-0.03-0.51-0.23-0.91-0.59-1.22c-0.36-0.31-0.86-0.47-1.49-0.47
		c-0.56,0-1.01,0.13-1.36,0.4c-0.35,0.26-0.52,0.59-0.52,0.98c0,0.34,0.1,0.61,0.31,0.83c0.21,0.22,0.46,0.38,0.77,0.51
		c0.31,0.12,0.72,0.26,1.23,0.4c0.62,0.17,1.12,0.33,1.49,0.49c0.37,0.16,0.68,0.39,0.95,0.7c0.26,0.31,0.4,0.71,0.41,1.22
		c0,0.46-0.13,0.88-0.38,1.24c-0.25,0.36-0.61,0.65-1.06,0.86c-0.45,0.21-0.97,0.32-1.56,0.32
		C340.89,157.9,340.08,157.67,339.46,157.21z"/>
</g>
</svg>
