<svg xmlns="http://www.w3.org/2000/svg" version="1.1" xmlns:xlink="http://www.w3.org/1999/xlink" xmlns:svgjs="http://svgjs.com/svgjs" width="512" height="512" x="0" y="0" viewBox="0 0 16.933333 16.933334" style="enable-background:new 0 0 512 512" xml:space="preserve" class=""><g><g xmlns="http://www.w3.org/2000/svg" id="layer1"><path id="rect6592" d="m2.3812502.00091116h13.7583328c.439738 0 .79375.35399343.79375.79370725v9.78905559c0 .439714-.354012.793708-.79375.793708h-13.7583328c-.4397375 0-.79375-.353994-.79375-.793708v-9.78905559c0-.43971382.3540125-.79370725.79375-.79370725z" fill="#e4eff8" data-original="#e4eff8"></path><path id="path6598" d="m9.2605037 3.1757402h6.6145063v4.7622437h-6.6145063z" fill="#ffd1b5" data-original="#ffd1b5"></path><path id="path6805" d="m4.9015098 7.6181243c-1.306812 0-.406904.525776-1.536341 1.0029854-1.129446.4772104-.904133-.4961854-1.764233.3751507-.0051.00521-.0084.00933-.01344.014469v1.5729456c0 .439714.354012.793708.79375.793708h6.6223349c-.144662-.087992-.303136-.245252-.454232-.617501-.459805-1.1328087.512845-.8922855-.347266-1.7636216-.860101-.8713361-.634786.1020604-1.764233-.3751507-1.1294379-.4772094-.229529-1.0029854-1.5363399-1.0029854z" fill="#c4dcf0" data-original="#c4dcf0"></path><path id="path6601" d="m10.847917 6.3505695c-.55856.558534-1.0681463 1.0680752-1.5875003 1.5874146h3.1750003z" fill="#3588cb" data-original="#3588cb" class=""></path><path id="path6603" d="m16.27446.01434648c.880719 10.43358252-12.2529122 11.27804352-14.0559902 11.34598352.05262.01091.106838.01705.162781.01705h13.7583332c.439738 0 .79375-.353994.79375-.793707v-9.78905441c0-.39343923-.284217-.71626446-.658874-.78027211z" fill="#c4dcf0" data-original="#c4dcf0"></path><path id="path6606" d="m15.875001 3.900205c-.559719 1.708526-1.610836 3.0217291-2.890263 4.0377791h2.890263z" fill="#ffb98d" data-original="#ffb98d"></path><path id="path6608" d="m15.876883 7.9379839-2.381249-2.3811219c-.83784.8378009-1.54336 1.543321-2.3812 2.3811209z" fill="#549ad4" data-original="#549ad4" class=""></path><path id="path6610" d="m14.099915 6.1609272c-.247898 1.2809068-2.208394 1.6473398-2.950207 1.741919-.01231.012307-.02278.022774-.03514.035138h4.7625z" fill="#3588cb" data-original="#3588cb" class=""></path><path id="path6620" d="m1.5875008 2.1174911v-1.32287251c0-.43971384.354012-.79370729.79375-.79370729h13.7583322c.439738 0 .79375.35399345.79375.79370729v1.32287251z" fill="#549ad4" data-original="#549ad4" class=""></path><path id="path6622" d="m16.337505.0288151c.05888.74390997.04639 1.4387621-.02739 2.088649h.623218v-1.32284551c0-.37083815-.253171-.67782803-.595828-.76580349z" fill="#3588cb" data-original="#3588cb" class=""></path><path id="path6640" d="m11.377144 5.5568617c0 .2922353.23691.5291385.52916.5291385s.52916-.2369032.52916-.5291385-.23691-.5291375-.52916-.5291375-.52916.2369022-.52916.5291375z" fill="#ffca28" data-original="#ffca28"></path><path id="circle6645" d="m2.9122988 1.0591859c0 .1461174-.1184578.2645689-.264583.2645691-.1461256.0000004-.264584-.1184514-.264584-.2645691 0-.14611775.1184584-.26456949.264584-.26456911.1461252.00000018.264583.11845176.264583.26456911z" fill="#427096" data-original="#427096" class=""></path><path id="circle6647" d="m3.9706408 1.0591859c0 .1461174-.1184578.2645689-.264583.2645691-.1461256.0000004-.264584-.1184514-.264584-.2645691 0-.14611775.1184584-.26456949.264584-.26456911.1461252.00000018.264583.11845176.264583.26456911z" fill="#427096" data-original="#427096" class=""></path><path id="circle6649" d="m5.0289678 1.0591859c0 .1461177-.1184584.2645695-.264584.2645691-.1461252-.0000002-.264583-.1184517-.264583-.2645691 0-.14611735.1184578-.26456893.264583-.26456911.1461256-.00000038.264584.11845136.264584.26456911z" fill="#427096" data-original="#427096" class=""></path><path id="path6654" d="m5.5575548-.00000005v2.11707355h.529297v-2.11707355z" fill="#e4eff8" font-variant-ligatures="normal" font-variant-position="normal" font-variant-caps="normal" font-variant-numeric="normal" font-variant-alternates="normal" font-feature-settings="normal" text-indent="0" text-align="start" text-decoration-line="none" text-decoration-style="solid" text-decoration-color="#000000" text-transform="none" text-orientation="mixed" white-space="normal" shape-padding="0" isolation="auto" mix-blend-mode="normal" solid-color="#000000" solid-opacity="1" vector-effect="none" data-original="#e4eff8"></path><path id="path6822" d="m6.8791687.79461859c-.352865 0-.352865.52926871 0 .52926871h8.4666673c.352864 0 .352864-.52926871 0-.52926871z" fill="#427096" font-variant-ligatures="normal" font-variant-position="normal" font-variant-caps="normal" font-variant-numeric="normal" font-variant-alternates="normal" font-feature-settings="normal" text-indent="0" text-align="start" text-decoration-line="none" text-decoration-style="solid" text-decoration-color="#000000" text-transform="none" text-orientation="mixed" white-space="normal" shape-padding="0" isolation="auto" mix-blend-mode="normal" solid-color="#000000" solid-opacity="1" vector-effect="none" data-original="#427096" class=""></path><path id="path6781" d="m.9811808 10.814095c.459818-1.1328083-.51324899-.892009.346862-1.763345.8601-.8713361.634969.1017086 1.764415-.3755017 1.129437-.4772094.22956-1.0026101 1.536372-1.0026101 1.306811 0 .406932.5254007 1.5363699 1.0026101 1.129447.4772112.904313-.4958344 1.764415.3755017.860111.871336-.112943.6305367.346861 1.763345.459809 1.13281.991521.286219.981019 1.488888.0105 1.202672-.52121.356079-.981019 1.488888-.459819 1.132811.51325.892012-.346861 1.763347-.860102.871337-.634968-.101713-1.764415.375503-1.1294379.47721-.2295589 1.002613-1.5363699 1.002613-1.306812 0-.406935-.525403-1.536372-1.002613-1.129446-.477217-.904315.495834-1.764415-.375503-.86011099-.871335.112956-.630536-.346862-1.763347-.45981999-1.132809-.99151999-.286216-.98102799-1.488888-.0105-1.202669.521208-.356078.98102799-1.488888z" fill="#549ad4" data-original="#549ad4" class=""></path><path id="path6783" d="m4.6288228 7.67264c-.204451 0-.350412.014009-.463059.03753.607374.126835.120801.5624073 1.073538.9649568.593373.2507116.812631.1042218 1.0120379.032104-.02893-.010955-.05502-.019049-.08591-.032104-1.1294409-.4772096-.2297899-1.0024877-1.5366019-1.0024868zm2.7381109 1.0011313c-.196385-.018857-.324913.1381342-.629471.1388202.07611.057122.1628.1338571.265897.2383002.860111.8713361-.112963.6302498.346842 1.7630583.459809 1.13281.991791.286366.981289 1.489036.0105 1.202672-.52148.356227-.981289 1.489036-.45982 1.13281.513269.891724-.346842 1.76306-.103097.104442-.189784.181181-.265897.238299.508148.0011.521152.441327 1.192015-.238299.860112-.871336-.112976-.63025.346843-1.76306.459809-1.132809.991789-.286364.981288-1.489036.0105-1.20267-.521479-.356226-.981288-1.489036-.459804-1.1328085.513269-.8917222-.346843-1.7630583-.268781-.2722933-.431265-.364514-.562544-.3771204zm-1.6193519 7.1196097c-.13261.0092-.296509.04799-.50828.137463-.952737.40255-.466164.838122-1.073538.964958.112647.02352.258608.03753.463059.03753 1.306812 0 .407161-.525279 1.5365979-1.002489.03091-.01306.05699-.02115.08591-.03211-.1282399-.04638-.2647999-.121979-.5037579-.105358z" fill="#3588cb" data-original="#3588cb" class=""></path><path id="circle6785" d="m6.7125945 12.302984c.0000001 1.150771-.9329346 2.083656-2.0837679 2.083656s-2.083768-.932885-2.0837679-2.083656c-.0000001-1.150771.9329346-2.083656 2.0837679-2.083656s2.083768.932885 2.0837679 2.083656z" fill="#e4eff8" data-original="#e4eff8"></path><path id="path6787" d="m4.6288228 10.21933c-1.150833 0-2.0837672.932885-2.083767 2.083656.0007422.667848.3215844 1.29487.862809 1.686188-.2589714-.355332-.3988966-.783474-.399751-1.223154.0000004-1.150771.932935-2.083655 2.083768-2.083655.4386801.000674.8659584.139769 1.2209579.397468-.3913559-.539697-1.0173369-.859562-1.6840169-.860503z" fill="#c4dcf0" data-original="#c4dcf0"></path><path id="path6789" d="m5.3234128 14.155125v-1.244269c.564836-.267911.9252159-.83678.9261179-1.461906-.000875-.625124-.3612819-1.193994-.9261179-1.4619047v1.3891037l-.69459.231517-.69459-.231517v-1.3895561c-.564983.2679811-.92539.8370691-.926119 1.4623571.000718.625289.361136 1.194377.926119 1.462358v1.355958c.04573.01615.280848.119.690683.119z" fill="#ffca28" data-original="#ffca28"></path><path id="path6791" d="m5.5549418 10.439091v.936921l-.694589.231518-.0041-.0014v2.765555c.2429912-.02618.4794816-.09491.698659-.203029v-1.257971c.564836-.26791.9252169-.83678.9261189-1.461905-.000053-.03846-.0054-.07598-.0081-.113951-.2041933-.387676-.5254081-.701121-.9179779-.895772z" fill="#c4dcf0" data-original="#c4dcf0"></path><path id="path6793" d="m5.3235748 9.9869088v1.3891032l-.694589.231518-.004-.0013v2.779564c.275343-.000825.469187-.043.698659-.111645v-1.363386c.56484-.26791.9252219-.83678.9261239-1.461906-.000875-.625124-.3612839-1.193994-.9261199-1.4619045z" fill="#ecb200" data-original="#ecb200"></path><g fill="#427096"><path id="path6667" d="m2.6473978 3.9685364c-.3529614-.000097-.3529614.5291714 0 .5292684h5.5566409c.3529614.000097.3529614-.5291714 0-.5292684z" font-variant-ligatures="normal" font-variant-position="normal" font-variant-caps="normal" font-variant-numeric="normal" font-variant-alternates="normal" font-feature-settings="normal" text-indent="0" text-align="start" text-decoration-line="none" text-decoration-style="solid" text-decoration-color="#000000" text-transform="none" text-orientation="mixed" white-space="normal" shape-padding="0" isolation="auto" mix-blend-mode="normal" solid-color="#000000" solid-opacity="1" vector-effect="none" fill="#427096" data-original="#427096" class=""></path><path id="path6673" d="m2.6473978 5.0270731c-.3529614-.000097-.3529614.5291714 0 .5292684h5.5566409c.3529614.000097.3529614-.5291714 0-.5292684z" font-variant-ligatures="normal" font-variant-position="normal" font-variant-caps="normal" font-variant-numeric="normal" font-variant-alternates="normal" font-feature-settings="normal" text-indent="0" text-align="start" text-decoration-line="none" text-decoration-style="solid" text-decoration-color="#000000" text-transform="none" text-orientation="mixed" white-space="normal" shape-padding="0" isolation="auto" mix-blend-mode="normal" solid-color="#000000" solid-opacity="1" vector-effect="none" fill="#427096" data-original="#427096" class=""></path><path id="path6677" d="m2.6473978 6.08561c-.3529614-.000097-.3529614.5291713 0 .5292683h5.5566409c.3529614.000097.3529614-.5291713 0-.5292683z" font-variant-ligatures="normal" font-variant-position="normal" font-variant-caps="normal" font-variant-numeric="normal" font-variant-alternates="normal" font-feature-settings="normal" text-indent="0" text-align="start" text-decoration-line="none" text-decoration-style="solid" text-decoration-color="#000000" text-transform="none" text-orientation="mixed" white-space="normal" shape-padding="0" isolation="auto" mix-blend-mode="normal" solid-color="#000000" solid-opacity="1" vector-effect="none" fill="#427096" data-original="#427096" class=""></path><path id="path6833" d="m2.6473978 2.9111713c-.352864 0-.352864.5292684 0 .5292684h2.908855c.352864 0 .352864-.5292684 0-.5292684z" font-variant-ligatures="normal" font-variant-position="normal" font-variant-caps="normal" font-variant-numeric="normal" font-variant-alternates="normal" font-feature-settings="normal" text-indent="0" text-align="start" text-decoration-line="none" text-decoration-style="solid" text-decoration-color="#000000" text-transform="none" text-orientation="mixed" white-space="normal" shape-padding="0" isolation="auto" mix-blend-mode="normal" solid-color="#000000" solid-opacity="1" vector-effect="none" fill="#427096" data-original="#427096" class=""></path></g></g></g></svg>